<?xml version="1.0" standalone="no"?><!DOCTYPE svg PUBLIC "-//W3C//DTD SVG 1.1//EN" "http://www.w3.org/Graphics/SVG/1.1/DTD/svg11.dtd"><svg t="1752465580865" class="icon" viewBox="0 0 1024 1024" version="1.1" xmlns="http://www.w3.org/2000/svg" p-id="2771" xmlns:xlink="http://www.w3.org/1999/xlink" width="200" height="200"><path d="M84.71822677 736.98721109c12.03813943 12.03531776 31.53738752 12.03531776 43.60347193 0l384.02352811-384.02409472L896.36992 736.98721109c12.06724834 12.03531776 31.56766037 12.03531776 43.60463587 0 12.03581154-12.03531776 12.03581155-31.56636786 0-43.60168562l-401.87173888-401.8704088c-1.05023716-1.52406243-2.2483456-2.97943153-3.6048054-4.33699955-6.09766286-6.09624861-14.13977885-9.09197995-22.15045689-8.99650787-8.01417102-0.09547207-16.05512192 2.89676629-22.15394987 8.99650787-1.35762375 1.357568-2.55223922 2.81526499-3.60713329 4.33932745l-401.86824591 401.86807977C72.68125129 705.41968043 72.68125127 724.95189332 84.71822677 736.98721109z" p-id="2772"></path></svg>